<mxfile host="app.diagrams.net" modified="2022-02-07T23:12:55.168Z" agent="5.0 (Macintosh)" etag="0d6t_FOoouNcx3nQ7PlX" version="16.5.3" type="github">
  <diagram id="ajxzSgRwx6JnNrODlYGR" name="Page-1">
    <mxGraphModel dx="946" dy="515" grid="1" gridSize="10" guides="1" tooltips="1" connect="1" arrows="1" fold="1" page="1" pageScale="1" pageWidth="850" pageHeight="1100" math="0" shadow="0">
      <root>
        <mxCell id="0" />
        <mxCell id="1" parent="0" />
        <mxCell id="I2B_gSSDVk9KrwEiB06L-7" style="edgeStyle=orthogonalEdgeStyle;rounded=0;orthogonalLoop=1;jettySize=auto;html=1;entryX=0;entryY=0.5;entryDx=0;entryDy=0;strokeWidth=2;" parent="1" source="I2B_gSSDVk9KrwEiB06L-4" target="I2B_gSSDVk9KrwEiB06L-5" edge="1">
          <mxGeometry relative="1" as="geometry" />
        </mxCell>
        <mxCell id="I2B_gSSDVk9KrwEiB06L-4" value="Analysis" style="rounded=1;whiteSpace=wrap;html=1;fontStyle=1;fontSize=13;fillColor=#d0cee2;strokeColor=#56517e;opacity=70;" parent="1" vertex="1">
          <mxGeometry x="10" y="120" width="120" height="60" as="geometry" />
        </mxCell>
        <mxCell id="I2B_gSSDVk9KrwEiB06L-8" style="edgeStyle=orthogonalEdgeStyle;rounded=0;orthogonalLoop=1;jettySize=auto;html=1;entryX=0.5;entryY=0;entryDx=0;entryDy=0;exitX=1;exitY=0.5;exitDx=0;exitDy=0;strokeWidth=2;" parent="1" source="I2B_gSSDVk9KrwEiB06L-5" target="I2B_gSSDVk9KrwEiB06L-6" edge="1">
          <mxGeometry relative="1" as="geometry" />
        </mxCell>
        <mxCell id="I2B_gSSDVk9KrwEiB06L-5" value="Alignment" style="rounded=1;whiteSpace=wrap;html=1;fillColor=#fad7ac;strokeColor=#b46504;fontStyle=1;fontSize=13;opacity=70;" parent="1" vertex="1">
          <mxGeometry x="130" y="10" width="120" height="60" as="geometry" />
        </mxCell>
        <mxCell id="I2B_gSSDVk9KrwEiB06L-9" style="edgeStyle=orthogonalEdgeStyle;rounded=0;orthogonalLoop=1;jettySize=auto;html=1;entryX=1;entryY=0.5;entryDx=0;entryDy=0;strokeWidth=2;" parent="1" source="I2B_gSSDVk9KrwEiB06L-6" target="I2B_gSSDVk9KrwEiB06L-4" edge="1">
          <mxGeometry relative="1" as="geometry" />
        </mxCell>
        <mxCell id="I2B_gSSDVk9KrwEiB06L-6" value="Execution" style="rounded=1;whiteSpace=wrap;html=1;fillColor=#b1ddf0;strokeColor=#10739e;opacity=70;fontStyle=1;fontSize=13;" parent="1" vertex="1">
          <mxGeometry x="250" y="120" width="120" height="60" as="geometry" />
        </mxCell>
      </root>
    </mxGraphModel>
  </diagram>
</mxfile>
